# xmcd CD database file
#
# Track frame offsets:
#	150
#	20612
#	41065
#	64542
#
# Disc length: 1170 seconds
#
# Revision: 1
# Processed by: cddbd v1.5.2PL0 Copyright (c) Steve Scherf et al.
# Submitted via: CDex 1.70beta3
#
DISCID=2d049004
DTITLE=金子恵実 - あらためてアイラブユー
DYEAR=1992
DGENRE=Country
TTITLE0=あらためてアイラブユー
TTITLE1=あらためてアイラブユー(karaoke)
TTITLE2=なき笑いミス・ダウンタウン
TTITLE3=なき笑いミス・ダウンタウン(karaoke)
EXTD=YEAR: 1992
EXTT0=
EXTT1=
EXTT2=
EXTT3=
PLAYORDER=
